<svg width="253" height="79" viewBox="0 0 253 79" fill="none" xmlns="http://www.w3.org/2000/svg">
<g clip-path="url(#clip0_12_3268)">
<path d="M130.697 27.7185C125.615 27.7185 120.771 25.2629 117.05 20.8057C114.124 17.1941 112.138 12.9148 111.268 8.34914C111.223 8.12803 111.228 7.89967 111.281 7.68051C111.335 7.46134 111.437 7.25684 111.579 7.08175C111.722 6.90665 111.901 6.76532 112.105 6.66794C112.308 6.57056 112.531 6.51955 112.756 6.5186H148.63C148.858 6.51247 149.084 6.55878 149.292 6.65395C149.499 6.74911 149.681 6.8906 149.825 7.06748C149.969 7.24437 150.07 7.45193 150.121 7.67415C150.172 7.89636 150.171 8.1273 150.119 8.34914C149.251 12.9142 147.267 17.1936 144.344 20.8057C140.579 25.2629 135.735 27.7185 130.697 27.7185Z" fill="white"/>
<path d="M155.32 1.24292C154.966 0.853406 154.536 0.541755 154.055 0.327805C153.575 0.113856 153.055 0.00229779 152.529 0.000244141H108.783C108.257 0.00275177 107.737 0.114509 107.257 0.32843C106.777 0.54235 106.346 0.853764 105.992 1.24292C105.184 2.128 104.745 3.28874 104.764 4.48727C102.644 4.86181 100.714 5.9483 99.2943 7.56738C97.8744 9.18647 97.0491 11.2413 96.9546 13.3927C96.86 15.5442 97.502 17.6635 98.7744 19.4009C100.047 21.1382 101.874 22.3898 103.953 22.9488C104.937 23.2368 105.957 23.3846 106.982 23.3879C108.25 23.3761 109.507 23.1548 110.702 22.733C111.347 23.6868 112.045 24.6036 112.793 25.4788C115.278 28.4218 118.393 30.7669 121.909 32.3396H115.524C115.053 32.3396 114.6 32.527 114.267 32.8605C113.933 33.194 113.746 33.6464 113.746 34.118C113.746 34.5897 113.933 35.0421 114.267 35.3756C114.6 35.7091 115.053 35.8965 115.524 35.8965H145.81C146.282 35.8965 146.734 35.7091 147.068 35.3756C147.401 35.0421 147.588 34.5897 147.588 34.118C147.588 33.6464 147.401 33.194 147.068 32.8605C146.734 32.527 146.282 32.3396 145.81 32.3396H139.336C142.848 30.7646 145.961 28.4198 148.444 25.4788C153.139 20.0319 155.997 12.68 156.503 4.77748C156.558 4.13873 156.481 3.49551 156.278 2.88756C156.074 2.27961 155.748 1.71986 155.32 1.24292ZM104.883 19.5184C103.606 19.177 102.48 18.417 101.686 17.3599C100.891 16.3029 100.475 15.0099 100.502 13.6879C100.529 12.3659 100.999 11.0913 101.837 10.0681C102.675 9.04494 103.831 8.33227 105.122 8.04415C105.708 12.0721 106.966 15.9733 108.842 19.5854C107.541 19.921 106.173 19.8979 104.883 19.5184ZM130.697 29.7277C119.535 29.7277 110.152 18.6404 109.244 4.49471H152.142C151.577 18.1642 141.777 29.7277 130.697 29.7277Z" fill="#4E3D33"/>
<path d="M112.92 13.9301C113.923 16.4184 115.304 18.7375 117.013 20.8057C120.733 25.2704 125.577 27.7186 130.66 27.7186C135.742 27.7186 140.579 25.263 144.307 20.8057C146.011 18.7354 147.389 16.4167 148.392 13.9301H112.92Z" fill="#4E3D33"/>
<path opacity="0.8" d="M217.193 27.7185C212.118 27.7185 207.274 25.2629 203.553 20.8057C200.625 17.196 198.638 12.9158 197.772 8.34914C197.719 8.1273 197.718 7.89636 197.769 7.67415C197.82 7.45193 197.921 7.24437 198.065 7.06748C198.209 6.8906 198.391 6.74911 198.599 6.65395C198.806 6.55878 199.032 6.51247 199.26 6.5186H235.134C235.362 6.51247 235.588 6.55878 235.795 6.65395C236.002 6.74911 236.185 6.8906 236.329 7.06748C236.472 7.24437 236.574 7.45193 236.625 7.67415C236.675 7.89636 236.675 8.1273 236.622 8.34914C235.752 12.9148 233.766 17.1941 230.84 20.8057C227.12 25.2629 222.275 27.7185 217.193 27.7185Z" fill="white"/>
<path d="M217.193 27.7185C212.118 27.7185 207.274 25.2629 203.553 20.8057C200.625 17.196 198.638 12.9158 197.772 8.34914C197.719 8.1273 197.718 7.89636 197.769 7.67415C197.82 7.45193 197.921 7.24437 198.065 7.06748C198.209 6.8906 198.391 6.74911 198.599 6.65395C198.806 6.55878 199.032 6.51247 199.26 6.5186H235.134C235.362 6.51247 235.588 6.55878 235.795 6.65395C236.002 6.74911 236.185 6.8906 236.329 7.06748C236.472 7.24437 236.574 7.45193 236.625 7.67415C236.675 7.89636 236.675 8.1273 236.622 8.34914C235.752 12.9148 233.766 17.1941 230.84 20.8057C227.12 25.2629 222.275 27.7185 217.193 27.7185Z" fill="white"/>
<path d="M241.861 1.24292C241.507 0.853764 241.076 0.54235 240.596 0.32843C240.116 0.114509 239.596 0.00275177 239.07 0.000244141H195.323C194.798 0.00275177 194.278 0.114509 193.798 0.32843C193.317 0.54235 192.887 0.853764 192.533 1.24292C191.721 2.12597 191.282 3.28808 191.305 4.48727C189.185 4.86181 187.255 5.9483 185.835 7.56738C184.415 9.18647 183.59 11.2413 183.495 13.3927C183.401 15.5442 184.043 17.6635 185.315 19.4009C186.588 21.1382 188.414 22.3898 190.494 22.9488C191.478 23.2382 192.497 23.386 193.523 23.3879C194.803 23.3802 196.073 23.1589 197.28 22.733C197.923 23.6886 198.621 24.6054 199.371 25.4788C201.855 28.4198 204.967 30.7646 208.479 32.3396H202.132C201.66 32.3396 201.208 32.527 200.875 32.8605C200.541 33.194 200.354 33.6464 200.354 34.118C200.354 34.5897 200.541 35.0421 200.875 35.3756C201.208 35.7091 201.66 35.8965 202.132 35.8965H232.425C232.897 35.8965 233.349 35.7091 233.683 35.3756C234.016 35.0421 234.204 34.5897 234.204 34.118C234.204 33.6464 234.016 33.194 233.683 32.8605C233.349 32.527 232.897 32.3396 232.425 32.3396H225.944C229.456 30.7646 232.569 28.4198 235.052 25.4788C239.74 20.0319 242.605 12.68 243.111 4.77748C243.157 4.13401 243.069 3.48798 242.854 2.87979C242.639 2.27161 242.301 1.71435 241.861 1.24292ZM191.424 19.5184C190.147 19.177 189.021 18.417 188.226 17.3599C187.432 16.3029 187.015 15.0099 187.043 13.6879C187.07 12.3659 187.54 11.0913 188.378 10.0681C189.215 9.04494 190.372 8.33227 191.662 8.04415C192.245 12.0729 193.503 15.9747 195.383 19.5854C194.082 19.921 192.714 19.8979 191.424 19.5184ZM217.193 29.7277C206.076 29.7277 196.655 18.6404 195.748 4.49471H238.646C238.118 18.1642 228.318 29.7277 217.193 29.7277Z" fill="#4E3D33"/>
<path d="M201.499 17.9482C202.116 18.948 202.802 19.9029 203.553 20.8057C207.274 25.2704 212.118 27.7185 217.193 27.7185C222.268 27.7185 227.119 25.2629 230.84 20.8057C231.591 19.9029 232.278 18.948 232.894 17.9482H201.499Z" fill="#4E3D33"/>
<path d="M201.5 17.9483H232.894C234.287 15.6729 235.354 13.2132 236.064 10.6411H198.33C199.039 13.2132 200.106 15.6729 201.5 17.9483Z" fill="#FFE6CF"/>
<path d="M68.7864 1.24292C68.4327 0.853764 68.002 0.54235 67.5217 0.32843C67.0413 0.114509 66.5217 0.00275177 65.9959 0.000244141H22.2418C21.716 0.00275177 21.1964 0.114509 20.716 0.32843C20.2357 0.54235 19.805 0.853764 19.4514 1.24292C18.645 2.12874 18.2083 3.28963 18.231 4.48727C16.11 4.86081 14.1798 5.94648 12.7592 7.56503C11.3385 9.18359 10.5122 11.2382 10.4168 13.3897C10.3214 15.5412 10.9626 17.661 12.2345 19.3989C13.5063 21.1368 15.3329 22.389 17.4125 22.9488C18.3988 23.2373 19.4209 23.3851 20.4485 23.3879C21.7163 23.3768 22.9736 23.1555 24.1691 22.733C24.8139 23.6868 25.512 24.6036 26.26 25.4788C28.7458 28.4201 31.8611 30.7649 35.3755 32.3396H28.991C28.5193 32.3396 28.0669 32.527 27.7334 32.8605C27.3999 33.194 27.2125 33.6464 27.2125 34.118C27.2125 34.5897 27.3999 35.0421 27.7334 35.3756C28.0669 35.7091 28.5193 35.8965 28.991 35.8965H59.284C59.7556 35.8965 60.208 35.7091 60.5415 35.3756C60.875 35.0421 61.0624 34.5897 61.0624 34.118C61.0624 33.6464 60.875 33.194 60.5415 32.8605C60.208 32.527 59.7556 32.3396 59.284 32.3396H52.8027C56.3159 30.7666 59.4292 28.4215 61.9107 25.4788C66.6061 20.0319 69.4709 12.68 69.9769 4.77748C70.0274 4.13846 69.9479 3.49586 69.7433 2.88839C69.5387 2.28092 69.2131 1.72118 68.7864 1.24292ZM18.3352 19.5184C17.063 19.1707 15.9435 18.4078 15.1546 17.351C14.3656 16.2942 13.9524 15.004 13.9806 13.6855C14.0088 12.3669 14.4768 11.0956 15.3103 10.0735C16.1438 9.05143 17.2948 8.33715 18.5807 8.04415C19.1635 12.073 20.4213 15.9748 22.3013 19.5854C20.9976 19.9224 19.6268 19.8992 18.3352 19.5184ZM44.1114 29.7277C32.9943 29.7277 23.5738 18.6404 22.666 4.49471H65.5569C65.036 18.1642 55.236 29.7277 44.1189 29.7277H44.1114Z" fill="#4E3D33"/>
<path d="M28.4179 17.9482C29.0342 18.948 29.7205 19.9029 30.4717 20.8057C34.1923 25.2704 39.0365 27.7185 44.1188 27.7185C49.2011 27.7185 54.0453 25.2629 57.7659 20.8057C58.5171 19.9029 59.2034 18.948 59.8197 17.9482H28.4179Z" fill="#4E3D33"/>
</g>
<circle cx="20.0913" cy="67.7148" r="8.92941" fill="#FFE7CF"/>
<path d="M36.9797 67.8135V69.7155H37.569C37.4083 69.4297 37.3637 69.2779 37.3279 68.9475C37.7298 69.6083 38.3995 69.7869 39.1406 69.7869C40.3193 69.7869 41.1319 69.0726 41.1319 68.0903C41.1319 66.9474 40.1318 66.5187 39.2299 66.0991C38.4441 65.733 37.7744 65.4115 37.7298 64.6525C37.6941 64.0453 38.1673 63.6078 38.9085 63.6078C40.0246 63.6078 40.4979 64.331 40.5693 65.3579H40.7836V63.322H40.1943C40.3372 63.5899 40.3997 63.7863 40.4354 64.0899C40.0871 63.5631 39.4531 63.2506 38.8102 63.2506C37.3547 63.2506 36.9976 64.215 36.9976 64.8222C36.9976 65.9562 37.9798 66.3848 38.8727 66.7866C39.6317 67.1438 40.3639 67.4921 40.3639 68.2957C40.3639 68.9833 39.7925 69.5012 39.096 69.5012C38.6227 69.5012 38.203 69.3404 37.8191 69.0458C37.4351 68.7511 37.2297 68.3403 37.2029 67.8135H36.9797ZM42.6095 63.2059C42.2612 63.447 42.297 63.6613 42.297 63.9024V65.1793H41.6808V65.3043H42.297V68.1528C42.2702 68.9118 42.4398 69.1619 42.672 69.4029C42.922 69.6619 43.2345 69.7869 43.5917 69.7869C44.1543 69.7869 44.5829 69.4119 44.7793 68.894L44.6007 68.76C44.4757 69.1261 44.1721 69.4208 43.7703 69.4208C43.5471 69.4208 43.3774 69.3404 43.2613 69.1976C43.0292 68.9118 43.0738 68.5636 43.0827 68.0278V65.3043H44.5829V65.1793H43.0827V62.9023H41.6808V63.4917C41.9844 63.3756 42.288 63.2684 42.6095 63.2059ZM45.1907 67.4206C45.1907 68.8672 46.1372 69.7869 47.3695 69.7869C48.1999 69.7869 48.7803 69.3851 49.3072 68.769L49.1375 68.6261C48.7357 68.9743 48.1642 69.3315 47.5838 69.3315C46.5391 69.3315 45.9765 68.385 46.0837 66.8134H49.2536C49.2536 66.4116 49.0571 65.8401 48.7178 65.5187C48.3874 65.1972 47.941 65.0365 47.4409 65.0365C46.1015 65.0365 45.1907 66.1705 45.1907 67.4206ZM47.4499 65.2597C48.0303 65.2597 48.3696 65.7062 48.4946 66.2241C48.566 66.5098 48.7178 66.6616 48.9589 66.6884H46.1015C46.289 65.7687 46.7623 65.2597 47.4499 65.2597ZM49.9415 68.7243C49.9415 69.3226 50.379 69.7869 51.2809 69.7869C51.8078 69.7869 52.281 69.5369 52.665 69.1529V69.644H54.0133V69.0547C53.6294 69.2244 53.2722 69.3226 52.9596 69.3404C53.415 69.2333 53.4329 68.9208 53.4329 68.5904V66.6884C53.4418 65.6079 52.8971 65.0186 51.8078 65.0186C51.4595 65.0186 51.1827 65.0811 50.9773 65.1704C50.5487 65.3579 50.2094 65.7062 50.2094 66.108C50.2094 66.3134 50.3433 66.492 50.5844 66.5187C50.7987 66.5187 50.9684 66.3937 50.9952 66.1705C51.0041 66.0633 50.9773 65.9294 50.8791 65.8312C51.0488 65.4919 51.4327 65.2776 51.8078 65.2776C52.5846 65.2776 52.665 66.0455 52.665 66.5991V67.1527C51.7363 67.1527 49.9415 67.501 49.9415 68.7243ZM50.7898 68.6172C50.7719 67.7331 51.9506 67.3313 52.665 67.2777V68.7511C52.3078 69.0815 51.9774 69.2779 51.4863 69.2779C51.1202 69.2779 50.8166 69.0547 50.7898 68.6172ZM54.5549 69.4208V69.644H56.4747V69.0547C56.1622 69.1886 55.8407 69.2779 55.5014 69.3404C55.9032 69.2244 55.9389 69.0279 55.9389 68.6975V65.7151C56.18 65.4919 56.5997 65.3043 56.9301 65.3043C57.7516 65.3043 57.9123 66.0098 57.9123 67.0367V68.2511C57.9123 68.4564 57.9123 68.6439 57.9034 68.8047C57.8855 69.1261 57.8409 69.3137 57.3855 69.4208V69.644H59.1267V69.0547C58.8678 69.2065 58.5731 69.3047 58.2427 69.3404C58.6713 69.2333 58.6803 69.0011 58.6713 68.5814V66.5991C58.6713 66.358 58.6713 66.108 58.5017 65.7151C58.8231 65.474 59.1982 65.2865 59.6089 65.2865C60.3679 65.2865 60.6537 66.0276 60.6537 67.0367V68.2511C60.6537 68.894 60.7162 69.2601 60.0375 69.4208V69.644H61.9574V69.0547C61.6448 69.1886 61.3234 69.2779 60.984 69.3404C61.4037 69.2244 61.4305 68.9475 61.4216 68.5814V67.0367C61.4484 65.6169 60.9751 65.0365 59.9393 65.0365C59.4303 65.0365 58.8588 65.3043 58.457 65.6347C58.2338 65.2686 57.832 65.0365 57.2337 65.0365C56.7694 65.0365 56.2693 65.2418 55.9389 65.5901V65.1793H54.5549V65.7687C54.8585 65.6526 55.1621 65.5454 55.4835 65.4829C55.1353 65.724 55.171 65.9383 55.171 66.1794V68.2511C55.171 68.9029 55.2335 69.2601 54.5549 69.4208ZM62.6222 67.4206C62.6222 68.8672 63.5688 69.7869 64.801 69.7869C65.6315 69.7869 66.2119 69.3851 66.7387 68.769L66.569 68.6261C66.1672 68.9743 65.5957 69.3315 65.0153 69.3315C63.9706 69.3315 63.408 68.385 63.5152 66.8134H66.6851C66.6851 66.4116 66.4887 65.8401 66.1494 65.5187C65.819 65.1972 65.3725 65.0365 64.8725 65.0365C63.533 65.0365 62.6222 66.1705 62.6222 67.4206ZM64.8814 65.2597C65.4618 65.2597 65.8011 65.7062 65.9261 66.2241C65.9976 66.5098 66.1494 66.6616 66.3905 66.6884H63.533C63.7206 65.7687 64.1938 65.2597 64.8814 65.2597ZM67.4183 67.3045C67.4183 68.8225 68.5345 69.7869 69.74 69.7869C70.1418 69.7869 70.6776 69.6083 70.7936 69.2422V69.644H72.1956V69.0547C71.883 69.1886 71.5348 69.2779 71.133 69.3404C71.5705 69.2244 71.5794 68.9297 71.5794 68.5814V62.9023H70.1775V63.4917C70.4811 63.3756 70.7847 63.2684 71.1062 63.2059C70.7579 63.447 70.7936 63.6613 70.7936 63.9024V65.5633C70.4633 65.2329 69.9543 65.0365 69.6239 65.0365C68.2488 65.0365 67.4183 65.8848 67.4183 67.3045ZM69.7132 65.1793C70.1061 65.1793 70.5168 65.3758 70.7936 65.6883V68.2421C70.7936 69.1886 70.2757 69.4208 69.74 69.4208C68.8917 69.4208 68.3381 68.6439 68.3381 67.5278C68.3381 66.6973 68.6774 65.1793 69.7132 65.1793ZM75.2058 69.4208V69.644H77.2149V69.0547C76.9024 69.1886 76.5542 69.2779 76.1523 69.3404C76.6077 69.2333 76.5988 68.9118 76.5988 68.5814V63.956L78.849 69.7333H79.0722L80.9474 64.7686C80.9653 64.715 80.9921 64.6614 81.0099 64.6168C81.0278 64.5721 81.126 64.34 81.2957 63.9381V68.2511C81.2957 68.9118 81.4028 69.2601 80.7063 69.4208V69.644H82.7154V69.0547C82.4029 69.1886 82.0547 69.2779 81.6528 69.3404C82.1082 69.2333 82.0993 68.9118 82.0993 68.5814V64.7864C82.0993 64.1525 82.0457 63.7238 82.7154 63.6167V63.3935H81.0992L78.9651 68.9565H78.9472L76.7417 63.3935H75.2058V63.9828C75.5094 63.8667 75.813 63.7596 76.1345 63.6971C75.7862 63.9381 75.8219 64.1525 75.8219 64.3935V68.5636C75.8219 68.9297 75.7594 69.4029 75.2058 69.4208ZM83.34 65.1793V65.7687C83.6436 65.6526 83.9472 65.5454 84.2687 65.4829C83.9204 65.724 83.9561 65.9383 83.9561 66.1794V68.2511C83.9561 68.9029 84.0187 69.2601 83.34 69.4208V69.644H85.2598V69.0547C84.9473 69.1886 84.6259 69.2779 84.2865 69.3404C84.7509 69.1708 84.7241 68.9297 84.7241 68.5814V65.1793H83.34ZM83.8043 63.6792C83.8043 63.9471 84.0187 64.1614 84.2865 64.1614C84.5455 64.1614 84.7687 63.9471 84.7687 63.6792C84.7687 63.4202 84.5455 63.197 84.2865 63.197C84.0187 63.197 83.8043 63.4202 83.8043 63.6792ZM85.7794 63.5185C86.0294 63.3935 86.3866 63.2863 86.6544 63.2059C86.3776 63.447 86.3955 63.6613 86.3955 63.9024V68.2511C86.3955 68.9029 86.458 69.2601 85.7794 69.4208V69.644H87.6992V69.0547C87.3866 69.1886 87.0652 69.2779 86.7259 69.3404C87.1813 69.1976 87.1723 68.9118 87.1723 68.5814C87.1723 64.7954 87.1723 62.9023 87.1723 62.9023H85.7794V63.5185ZM88.2386 69.4208V69.644H90.1585V69.0547C89.8459 69.1886 89.5245 69.269 89.1852 69.3047C89.6227 69.2422 89.6227 68.9118 89.6227 68.5814V66.8134H89.9799L91.0603 68.8047C91.3193 69.2422 91.5515 69.644 91.9443 69.644H92.7569V69.4208C92.0961 69.4208 91.7658 68.9118 91.48 68.3671L90.8996 67.251C90.7657 67.0009 90.6496 66.7331 90.471 66.6884L91.1228 66.0008C91.23 65.8848 91.3639 65.7687 91.5068 65.6258C91.7925 65.3401 91.989 65.3043 92.2658 65.3043V65.1793H90.855V65.3043H91.4622C91.1853 65.3758 90.9353 65.6437 90.8192 65.7776L89.9799 66.6884H89.6227V62.9023H88.2386V63.5185C88.5333 63.3667 88.8458 63.2684 89.1673 63.2059C88.8191 63.447 88.8548 63.6613 88.8548 63.9024V68.2868C88.8548 68.8761 88.9173 69.2601 88.2386 69.4208Z" fill="black"/>
<circle cx="109.832" cy="67.7148" r="8.92941" fill="white"/>
<path d="M126.596 69.4208V69.644H128.605V69.0547C128.292 69.1886 127.944 69.2779 127.542 69.3404C127.998 69.2333 127.989 68.9118 127.989 68.5814V63.956L130.239 69.7333H130.462L132.337 64.7686C132.355 64.715 132.382 64.6614 132.4 64.6168C132.418 64.5721 132.516 64.34 132.686 63.9381V68.2511C132.686 68.9118 132.793 69.2601 132.096 69.4208V69.644H134.105V69.0547C133.793 69.1886 133.445 69.2779 133.043 69.3404C133.498 69.2333 133.489 68.9118 133.489 68.5814V64.7864C133.489 64.1525 133.436 63.7238 134.105 63.6167V63.3935H132.489L130.355 68.9565H130.337L128.132 63.3935H126.596V63.9828C126.899 63.8667 127.203 63.7596 127.524 63.6971C127.176 63.9381 127.212 64.1525 127.212 64.3935V68.5636C127.212 68.9297 127.149 69.4029 126.596 69.4208ZM134.73 65.1793V65.7687C135.034 65.6526 135.337 65.5454 135.659 65.4829C135.31 65.724 135.346 65.9383 135.346 66.1794V68.2511C135.346 68.9029 135.409 69.2601 134.73 69.4208V69.644H136.65V69.0547C136.337 69.1886 136.016 69.2779 135.677 69.3404C136.141 69.1708 136.114 68.9297 136.114 68.5814V65.1793H134.73ZM135.194 63.6792C135.194 63.9471 135.409 64.1614 135.677 64.1614C135.936 64.1614 136.159 63.9471 136.159 63.6792C136.159 63.4202 135.936 63.197 135.677 63.197C135.409 63.197 135.194 63.4202 135.194 63.6792ZM137.169 63.5185C137.419 63.3935 137.777 63.2863 138.044 63.2059C137.768 63.447 137.786 63.6613 137.786 63.9024V68.2511C137.786 68.9029 137.848 69.2601 137.169 69.4208V69.644H139.089V69.0547C138.777 69.1886 138.455 69.2779 138.116 69.3404C138.571 69.1976 138.562 68.9118 138.562 68.5814C138.562 64.7954 138.562 62.9023 138.562 62.9023H137.169V63.5185ZM139.629 69.4208V69.644H141.548V69.0547C141.236 69.1886 140.914 69.269 140.575 69.3047C141.013 69.2422 141.013 68.9118 141.013 68.5814V66.8134H141.37L142.45 68.8047C142.709 69.2422 142.941 69.644 143.334 69.644H144.147V69.4208C143.486 69.4208 143.156 68.9118 142.87 68.3671L142.29 67.251C142.156 67.0009 142.04 66.7331 141.861 66.6884L142.513 66.0008C142.62 65.8848 142.754 65.7687 142.897 65.6258C143.183 65.3401 143.379 65.3043 143.656 65.3043V65.1793H142.245V65.3043H142.852C142.575 65.3758 142.325 65.6437 142.209 65.7776L141.37 66.6884H141.013V62.9023H139.629V63.5185C139.923 63.3667 140.236 63.2684 140.557 63.2059C140.209 63.447 140.245 63.6613 140.245 63.9024V68.2868C140.245 68.8761 140.307 69.2601 139.629 69.4208ZM147.047 69.4208V69.644H149.324V69.0547C148.931 69.2244 148.484 69.3137 147.993 69.3404C148.449 69.2333 148.44 68.9118 148.44 68.5814V66.3937H149.154C149.806 66.3937 150.154 66.617 150.154 67.3313H150.386V65.5544H149.842C150.083 66.0366 150.119 66.4116 150.11 66.3937C150.056 66.2777 149.788 66.2687 149.502 66.2687C149.431 66.2687 149.351 66.2687 149.279 66.2687H148.44V64.8222C148.44 64.2328 148.395 63.6971 149.065 63.6971H149.708C150.378 63.6971 150.94 63.8935 150.94 64.9561H151.235V63.3935H147.047V63.9828C147.342 63.8578 147.663 63.7596 147.975 63.6971C147.627 63.9381 147.663 64.1525 147.663 64.3935V68.2511C147.663 68.894 147.725 69.2601 147.047 69.4208ZM153.924 69.7869C155.183 69.7869 156.175 68.6886 156.175 67.3045C156.175 66.0098 155.165 65.0365 153.924 65.0365C152.656 65.0365 151.683 66.108 151.683 67.5188C151.683 68.8404 152.674 69.7869 153.924 69.7869ZM152.594 67.2599C152.594 66.4562 152.951 65.2597 153.924 65.2597C154.398 65.2597 154.737 65.6437 154.951 66.0633C155.165 66.492 155.264 67.0277 155.264 67.5635C155.264 68.3939 154.942 69.5637 153.924 69.5637C153.612 69.5637 153.344 69.4387 153.139 69.1797C152.71 68.6707 152.594 68.001 152.594 67.2599ZM156.87 68.7243C156.87 69.3226 157.308 69.7869 158.209 69.7869C158.736 69.7869 159.21 69.5369 159.593 69.1529V69.644H160.942V69.0547C160.558 69.2244 160.201 69.3226 159.888 69.3404C160.344 69.2333 160.361 68.9208 160.361 68.5904V66.6884C160.37 65.6079 159.826 65.0186 158.736 65.0186C158.388 65.0186 158.111 65.0811 157.906 65.1704C157.477 65.3579 157.138 65.7062 157.138 66.108C157.138 66.3134 157.272 66.492 157.513 66.5187C157.727 66.5187 157.897 66.3937 157.924 66.1705C157.933 66.0633 157.906 65.9294 157.808 65.8312C157.977 65.4919 158.361 65.2776 158.736 65.2776C159.513 65.2776 159.593 66.0455 159.593 66.5991V67.1527C158.665 67.1527 156.87 67.501 156.87 68.7243ZM157.718 68.6172C157.7 67.7331 158.879 67.3313 159.593 67.2777V68.7511C159.236 69.0815 158.906 69.2779 158.415 69.2779C158.049 69.2779 157.745 69.0547 157.718 68.6172ZM161.483 69.4208V69.644H163.403V69.0547C163.091 69.1886 162.769 69.2779 162.43 69.3404C162.832 69.2244 162.867 69.0279 162.867 68.6975V65.7151C163.109 65.4919 163.528 65.3043 163.859 65.3043C164.68 65.3043 164.841 66.0098 164.841 67.0367V68.2511C164.841 68.4564 164.841 68.6439 164.832 68.8047C164.814 69.1261 164.769 69.3137 164.314 69.4208V69.644H166.055V69.0547C165.796 69.2065 165.502 69.3047 165.171 69.3404C165.6 69.2333 165.609 69.0011 165.6 68.5814V66.5991C165.6 66.358 165.6 66.108 165.43 65.7151C165.752 65.474 166.127 65.2865 166.537 65.2865C167.296 65.2865 167.582 66.0276 167.582 67.0367V68.2511C167.582 68.894 167.645 69.2601 166.966 69.4208V69.644H168.886V69.0547C168.573 69.1886 168.252 69.2779 167.913 69.3404C168.332 69.2244 168.359 68.9475 168.35 68.5814V67.0367C168.377 65.6169 167.904 65.0365 166.868 65.0365C166.359 65.0365 165.787 65.3043 165.386 65.6347C165.162 65.2686 164.76 65.0365 164.162 65.0365C163.698 65.0365 163.198 65.2418 162.867 65.5901V65.1793H161.483V65.7687C161.787 65.6526 162.091 65.5454 162.412 65.4829C162.064 65.724 162.1 65.9383 162.1 66.1794V68.2511C162.1 68.9029 162.162 69.2601 161.483 69.4208Z" fill="black"/>
<circle cx="185.574" cy="67.7148" r="8.92941" fill="#533A2F"/>
<path d="M202.435 69.4208V69.644H207.043V67.9028H206.775C206.811 68.9743 206.275 69.269 205.507 69.2869L203.382 69.3404C203.837 69.2333 203.828 68.9029 203.828 68.6172V66.3937H204.543C205.194 66.3937 205.543 66.617 205.543 67.3313H205.775V65.5544H205.23C205.471 66.0366 205.507 66.4027 205.498 66.3937C205.444 66.2777 205.177 66.2687 204.891 66.2687C204.819 66.2687 204.739 66.2687 204.668 66.2687H203.828V64.7864C203.828 64.0899 203.837 63.6971 204.498 63.6971H205.275C205.953 63.6971 206.48 63.8935 206.48 64.9561H206.775V63.3935H202.435V63.9828C202.739 63.8667 203.042 63.7596 203.364 63.6971C203.016 63.9381 203.06 64.215 203.06 64.4561L203.051 68.2511C203.051 68.894 203.114 69.2601 202.435 69.4208ZM207.911 66.3312C207.911 67.2331 208.723 67.5188 209.438 67.7957C209.991 68.01 210.491 68.2421 210.491 68.7332C210.491 69.2154 209.965 69.4387 209.509 69.4387C208.804 69.4387 208.277 68.9118 208.134 68.1707H207.911V69.7065H208.5C208.322 69.4565 208.214 69.2869 208.161 68.9743C208.527 69.6173 209.072 69.7869 209.67 69.7869C210.429 69.7869 211.215 69.3762 211.215 68.4743C211.215 67.6706 210.5 67.367 209.822 67.0813C209.197 66.8313 208.607 66.5991 208.607 66.0455C208.607 65.6883 208.938 65.3669 209.482 65.3669C210.259 65.3669 210.599 65.849 210.679 66.6438H210.902V65.1793H210.313C210.509 65.3758 210.59 65.5187 210.634 65.7955C210.483 65.4561 210.286 65.2418 210.045 65.1615C209.804 65.0811 209.599 65.0365 209.438 65.0365C208.232 65.0365 207.911 65.8312 207.911 66.3312ZM212.767 65.4829C212.419 65.724 212.455 65.9383 212.455 66.1794V70.5281C212.455 71.1799 212.517 71.5371 211.839 71.6978V71.921H213.759V71.3317C213.446 71.4656 213.125 71.5549 212.785 71.6174C213.241 71.4478 213.223 71.1888 213.223 70.8584V69.4922C213.535 69.6798 213.875 69.7869 214.294 69.7869C215.5 69.7869 216.571 68.769 216.571 67.251C216.571 65.8758 215.634 65.0365 214.607 65.0365C214.107 65.0365 213.58 65.2508 213.223 65.5722V65.1793H211.839V65.7687C212.142 65.6526 212.446 65.5454 212.767 65.4829ZM213.223 65.6972C213.473 65.4651 213.91 65.2865 214.259 65.2865C215.366 65.2865 215.652 66.492 215.652 67.3938C215.652 68.5368 215.134 69.4744 214.268 69.4744C213.875 69.4744 213.509 69.3494 213.223 69.1708V65.6972ZM217.318 67.4206C217.318 68.8672 218.264 69.7869 219.497 69.7869C220.327 69.7869 220.907 69.3851 221.434 68.769L221.265 68.6261C220.863 68.9743 220.291 69.3315 219.711 69.3315C218.666 69.3315 218.104 68.385 218.211 66.8134H221.381C221.381 66.4116 221.184 65.8401 220.845 65.5187C220.515 65.1972 220.068 65.0365 219.568 65.0365C218.229 65.0365 217.318 66.1705 217.318 67.4206ZM219.577 65.2597C220.157 65.2597 220.497 65.7062 220.622 66.2241C220.693 66.5098 220.845 66.6616 221.086 66.6884H218.229C218.416 65.7687 218.889 65.2597 219.577 65.2597ZM222.104 69.3762V69.644H224.024V69.0547C223.711 69.1886 223.39 69.2779 223.05 69.3404C223.506 69.2333 223.497 68.9118 223.497 68.5814V66.0991C223.702 65.8223 224.033 65.4115 224.417 65.4115C224.524 65.4115 224.64 65.4472 224.756 65.5276C224.72 65.7865 224.899 66.0008 225.158 66.0276C225.408 66.0276 225.613 65.849 225.613 65.5901C225.613 65.1972 225.31 65.0365 224.979 65.0365C224.354 65.0365 223.729 65.5365 223.497 65.9741V65.1793H222.104V65.7687C222.407 65.6526 222.711 65.5454 223.033 65.4829C222.684 65.724 222.72 65.9383 222.72 66.1794V68.2511C222.72 68.885 222.783 69.3047 222.104 69.3762ZM226.136 66.3312C226.136 67.2331 226.948 67.5188 227.663 67.7957C228.216 68.01 228.717 68.2421 228.717 68.7332C228.717 69.2154 228.19 69.4387 227.734 69.4387C227.029 69.4387 226.502 68.9118 226.359 68.1707H226.136V69.7065H226.725C226.547 69.4565 226.44 69.2869 226.386 68.9743C226.752 69.6173 227.297 69.7869 227.895 69.7869C228.654 69.7869 229.44 69.3762 229.44 68.4743C229.44 67.6706 228.725 67.367 228.047 67.0813C227.422 66.8313 226.832 66.5991 226.832 66.0455C226.832 65.6883 227.163 65.3669 227.707 65.3669C228.484 65.3669 228.824 65.849 228.904 66.6438H229.127V65.1793H228.538C228.734 65.3758 228.815 65.5187 228.859 65.7955C228.708 65.4561 228.511 65.2418 228.27 65.1615C228.029 65.0811 227.824 65.0365 227.663 65.0365C226.457 65.0365 226.136 65.8312 226.136 66.3312ZM230.269 66.3312C230.269 67.2331 231.082 67.5188 231.796 67.7957C232.35 68.01 232.85 68.2421 232.85 68.7332C232.85 69.2154 232.323 69.4387 231.868 69.4387C231.162 69.4387 230.635 68.9118 230.492 68.1707H230.269V69.7065H230.859C230.68 69.4565 230.573 69.2869 230.519 68.9743C230.885 69.6173 231.43 69.7869 232.028 69.7869C232.787 69.7869 233.573 69.3762 233.573 68.4743C233.573 67.6706 232.859 67.367 232.18 67.0813C231.555 66.8313 230.966 66.5991 230.966 66.0455C230.966 65.6883 231.296 65.3669 231.841 65.3669C232.618 65.3669 232.957 65.849 233.037 66.6438H233.261V65.1793H232.671C232.868 65.3758 232.948 65.5187 232.993 65.7955C232.841 65.4561 232.644 65.2418 232.403 65.1615C232.162 65.0811 231.957 65.0365 231.796 65.0365C230.591 65.0365 230.269 65.8312 230.269 66.3312ZM236.546 69.7869C237.805 69.7869 238.796 68.6886 238.796 67.3045C238.796 66.0098 237.787 65.0365 236.546 65.0365C235.278 65.0365 234.304 66.108 234.304 67.5188C234.304 68.8404 235.296 69.7869 236.546 69.7869ZM235.215 67.2599C235.215 66.4562 235.572 65.2597 236.546 65.2597C237.019 65.2597 237.358 65.6437 237.573 66.0633C237.787 66.492 237.885 67.0277 237.885 67.5635C237.885 68.3939 237.564 69.5637 236.546 69.5637C236.233 69.5637 235.965 69.4387 235.76 69.1797C235.331 68.6707 235.215 68.001 235.215 67.2599Z" fill="black"/>
<defs>
<clipPath id="clip0_12_3268">
<rect width="232.678" height="35.8962" fill="white" transform="translate(10.4175 0.00012207)"/>
</clipPath>
</defs>
</svg>
