<svg width="298" height="104" viewBox="0 0 298 104" fill="none" xmlns="http://www.w3.org/2000/svg">
<g clip-path="url(#clip0_12_3295)">
<path d="M37.7422 57.2558C51.0361 57.2558 61.813 46.479 61.813 33.185C61.813 19.8911 51.0361 9.11426 37.7422 9.11426C24.4483 9.11426 13.6714 19.8911 13.6714 33.185C13.6714 46.479 24.4483 57.2558 37.7422 57.2558Z" stroke="#4E3D33" stroke-width="6.36176" stroke-miterlimit="10"/>
<path opacity="0.8" d="M37.7513 45.4893C34.488 45.4893 31.3584 44.1929 29.0509 41.8854C26.7434 39.5779 25.447 36.4483 25.447 33.185C25.447 29.9217 26.7434 26.7921 29.0509 24.4846C31.3584 22.1771 34.488 20.8807 37.7513 20.8807" stroke="white" stroke-width="6.36176" stroke-miterlimit="10" stroke-linecap="round"/>
<path d="M63.3442 33.1849H76.5508" stroke="#4E3D33" stroke-width="7.1547" stroke-miterlimit="10" stroke-linecap="round"/>
<path d="M32.7746 83.8389C32.7746 84.5918 33.7316 85.5743 35.3521 85.5743C36.9981 85.5743 38.491 84.579 38.491 82.6905C38.491 81.4018 37.6872 79.7812 35.62 79.7812C35.0841 79.7812 34.5993 79.8706 34.1016 80.062V76.7571H38.0062V76.4381H33.1191V80.8531H33.4509C33.8975 80.4958 34.4334 80.2534 35.2117 80.2534C36.7174 80.2534 37.3554 81.2359 37.5085 82.6012C37.5468 82.9968 37.483 83.4051 37.3171 83.8389C36.9598 84.7704 36.3346 85.2553 35.3266 85.2553C34.5099 85.2553 33.8847 84.6938 33.8209 84.209C33.923 84.0686 33.9613 83.9793 33.9613 83.8134C33.9613 83.6475 33.8592 83.2264 33.3743 83.2264C33.0043 83.2264 32.7746 83.4944 32.7746 83.8389ZM43.0326 85.5743C45.4059 85.5743 46.2864 82.9968 46.2864 80.8786C46.2864 78.7477 45.5718 76.234 43.0836 76.234C40.7103 76.234 39.7788 78.7987 39.7788 80.9424C39.7788 83.0861 40.4296 85.5743 43.0326 85.5743ZM41.5269 77.9821C41.8332 77.2165 42.3691 76.553 43.0964 76.553C44.6148 76.553 44.9721 79.1943 44.9721 81.1466C44.9721 82.078 44.87 83.0478 44.5893 83.8134C44.3086 84.579 43.7344 85.2553 43.0071 85.2553C41.259 85.2553 41.0931 81.8356 41.0931 80.6744C41.0931 79.7174 41.2207 78.7477 41.5269 77.9821ZM52.9738 83.2137C52.9738 84.6045 53.9308 85.5743 55.3344 85.5743C56.8273 85.5743 57.644 84.2728 57.644 83.0988C57.644 81.8739 56.8528 80.7127 55.3344 80.7127C54.0329 80.7127 52.9738 81.8994 52.9738 83.2137ZM49.7583 81.0955C51.0471 81.0955 52.1061 79.8833 52.1061 78.5818C52.1061 77.1782 51.1619 76.234 49.7583 76.234C48.2781 76.2595 47.4487 77.5227 47.4487 78.7094C47.4487 79.9216 48.2526 81.0955 49.7583 81.0955ZM54.0839 83.0095C54.0839 82.2694 54.4284 81.0317 55.3216 81.0317C56.3042 81.0317 56.5466 82.5629 56.5466 83.303C56.5466 83.9793 56.2148 85.2553 55.3599 85.2553C54.4412 85.2553 54.0839 83.7241 54.0839 83.0095ZM48.2016 85.587H49.0948L56.7508 76.234H55.7555L48.2016 85.587ZM49.7711 76.553C50.7281 76.553 51.0088 78.0587 51.0088 78.786C51.0088 79.5388 50.7281 80.7765 49.7838 80.7765C48.8268 80.7765 48.5461 79.2198 48.5461 78.4925C48.5461 77.8162 48.9417 76.553 49.7711 76.553Z" fill="#F8E4BE"/>
<path d="M34.1016 80.062H33.418V81.0573L34.347 80.7L34.1016 80.062ZM34.1016 76.7571V76.0736H33.418V76.7571H34.1016ZM38.0062 76.7571V77.4407H38.6897V76.7571H38.0062ZM38.0062 76.4381H38.6897V75.7546H38.0062V76.4381ZM33.1191 76.4381V75.7546H32.4355V76.4381H33.1191ZM33.1191 80.8531H32.4355V81.5367H33.1191V80.8531ZM33.4509 80.8531V81.5367H33.6906L33.8779 81.3869L33.4509 80.8531ZM37.5085 82.6012L38.189 82.5354L38.1878 82.525L37.5085 82.6012ZM37.3171 83.8389L37.9554 84.0837L37.9556 84.083L37.3171 83.8389ZM33.8209 84.209L33.2681 83.8069L33.1076 84.0276L33.1432 84.2981L33.8209 84.209ZM32.091 83.8389C32.091 84.4925 32.4881 85.1072 33.039 85.5308C33.609 85.9691 34.4025 86.2578 35.3521 86.2578V84.8907C34.6811 84.8907 34.1859 84.6882 33.8723 84.447C33.5396 84.1912 33.4581 83.9382 33.4581 83.8389H32.091ZM35.3521 86.2578C36.3061 86.2578 37.2548 85.97 37.9777 85.3646C38.7151 84.7471 39.1746 83.8327 39.1746 82.6905H37.8075C37.8075 83.4368 37.5205 83.9643 37.0999 84.3165C36.6649 84.6809 36.0441 84.8907 35.3521 84.8907V86.2578ZM39.1746 82.6905C39.1746 81.9177 38.9362 81.0303 38.3616 80.3219C37.7691 79.5917 36.8543 79.0977 35.62 79.0977V80.4648C36.4529 80.4648 36.9736 80.7811 37.2999 81.1833C37.6439 81.6074 37.8075 82.1746 37.8075 82.6905H39.1746ZM35.62 79.0977C35.0011 79.0977 34.433 79.2021 33.8562 79.424L34.347 80.7C34.7655 80.539 35.1672 80.4648 35.62 80.4648V79.0977ZM34.7852 80.062V76.7571H33.418V80.062H34.7852ZM34.1016 77.4407H38.0062V76.0736H34.1016V77.4407ZM38.6897 76.7571V76.4381H37.3226V76.7571H38.6897ZM38.0062 75.7546H33.1191V77.1217H38.0062V75.7546ZM32.4355 76.4381V80.8531H33.8027V76.4381H32.4355ZM33.1191 81.5367H33.4509V80.1695H33.1191V81.5367ZM33.8779 81.3869C34.2141 81.1179 34.6019 80.9369 35.2117 80.9369V79.5698C34.2648 79.5698 33.5808 79.8737 33.0238 80.3193L33.8779 81.3869ZM35.2117 80.9369C35.801 80.9369 36.1376 81.1211 36.3545 81.3672C36.5926 81.6375 36.7609 82.0679 36.8292 82.6774L38.1878 82.525C38.1031 81.7692 37.8758 81.0257 37.3802 80.4634C36.8634 79.8769 36.1281 79.5698 35.2117 79.5698V80.9369ZM36.8281 82.667C36.8546 82.9401 36.8136 83.2419 36.6786 83.5948L37.9556 84.083C38.1525 83.5682 38.2391 83.0535 38.1889 82.5354L36.8281 82.667ZM36.6789 83.5941C36.5333 83.9737 36.3558 84.2041 36.164 84.3435C35.9765 84.4797 35.717 84.5717 35.3266 84.5717V85.9388C35.9442 85.9388 36.5013 85.7884 36.9678 85.4493C37.4299 85.1134 37.7437 84.6356 37.9554 84.0837L36.6789 83.5941ZM35.3266 84.5717C35.0755 84.5717 34.858 84.4851 34.7031 84.3683C34.6259 84.31 34.5713 84.2495 34.5374 84.1985C34.5024 84.1458 34.4983 84.1173 34.4986 84.1198L33.1432 84.2981C33.2061 84.7761 33.5171 85.186 33.8797 85.4596C34.2576 85.7447 34.761 85.9388 35.3266 85.9388V84.5717ZM34.3737 84.611C34.4384 84.5221 34.5163 84.405 34.5708 84.2571C34.6283 84.1008 34.6448 83.9525 34.6448 83.8134H33.2777C33.2777 83.8289 33.2768 83.83 33.278 83.8221C33.2786 83.818 33.2797 83.8122 33.2815 83.8052C33.2833 83.7982 33.2855 83.7911 33.2879 83.7844C33.293 83.7706 33.2973 83.7637 33.2957 83.7664C33.2948 83.768 33.2923 83.772 33.2877 83.7789C33.2831 83.7858 33.2768 83.7949 33.2681 83.8069L34.3737 84.611ZM34.6448 83.8134C34.6448 83.6263 34.5947 83.3364 34.4139 83.072C34.2065 82.7685 33.853 82.5429 33.3743 82.5429V83.91C33.3933 83.91 33.377 83.9132 33.3453 83.896C33.3148 83.8796 33.295 83.8577 33.2853 83.8435C33.2773 83.8318 33.277 83.827 33.2783 83.8317C33.28 83.838 33.2777 83.8349 33.2777 83.8134H34.6448ZM33.3743 82.5429C33.0156 82.5429 32.6807 82.6773 32.4381 82.9348C32.2004 83.1871 32.091 83.5149 32.091 83.8389H33.4581C33.4581 83.8184 33.4636 83.84 33.4332 83.8722C33.4188 83.8875 33.4018 83.8987 33.3863 83.9051C33.371 83.9115 33.3651 83.91 33.3743 83.91V82.5429ZM41.5269 77.9821L40.8922 77.7282L41.5269 77.9821ZM44.5893 83.8134L45.2311 84.0487L44.5893 83.8134ZM43.0326 86.2578C44.5217 86.2578 45.5363 85.4273 46.1438 84.3585C46.7364 83.316 46.97 82.0153 46.97 80.8786H45.6028C45.6028 81.8601 45.3962 82.9072 44.9552 83.683C44.5292 84.4325 43.9169 84.8907 43.0326 84.8907V86.2578ZM46.97 80.8786C46.97 79.7559 46.7847 78.465 46.2177 77.429C45.628 76.3515 44.6164 75.5504 43.0836 75.5504V76.9175C44.039 76.9175 44.6288 77.3733 45.0184 78.0854C45.4308 78.839 45.6028 79.8704 45.6028 80.8786H46.97ZM43.0836 75.5504C41.5986 75.5504 40.572 76.3733 39.9505 77.4403C39.3434 78.4827 39.0952 79.7881 39.0952 80.9424H40.4624C40.4624 79.953 40.68 78.9042 41.1319 78.1284C41.5695 77.377 42.1953 76.9175 43.0836 76.9175V75.5504ZM39.0952 80.9424C39.0952 82.0628 39.2619 83.3547 39.8302 84.3909C40.4259 85.4773 41.4568 86.2578 43.0326 86.2578V84.8907C42.0053 84.8907 41.4093 84.4272 41.0289 83.7335C40.621 82.9898 40.4624 81.9657 40.4624 80.9424H39.0952ZM42.1616 78.236C42.2921 77.9098 42.4582 77.6416 42.6356 77.4653C42.8073 77.2946 42.9591 77.2365 43.0964 77.2365V75.8694C42.5064 75.8694 42.0265 76.1431 41.6719 76.4956C41.3229 76.8424 41.068 77.2888 40.8922 77.7282L42.1616 78.236ZM43.0964 77.2365C43.2484 77.2365 43.3786 77.292 43.519 77.4501C43.6753 77.6261 43.8254 77.9141 43.9505 78.3193C44.1999 79.1274 44.2885 80.1964 44.2885 81.1466H45.6557C45.6557 80.1445 45.5656 78.9166 45.2568 77.9161C45.1028 77.4169 44.8789 76.9225 44.5412 76.5423C44.1875 76.1441 43.7036 75.8694 43.0964 75.8694V77.2365ZM44.2885 81.1466C44.2885 82.0426 44.1885 82.9208 43.9475 83.5781L45.2311 84.0487C45.5515 83.1748 45.6557 82.1135 45.6557 81.1466H44.2885ZM43.9475 83.5781C43.834 83.8877 43.6689 84.1548 43.4867 84.3338C43.3071 84.5102 43.1447 84.5717 43.0071 84.5717V85.9388C43.5968 85.9388 44.0852 85.6622 44.4447 85.3091C44.8015 84.9586 45.0639 84.5047 45.2311 84.0487L43.9475 83.5781ZM43.0071 84.5717C42.8316 84.5717 42.6774 84.4999 42.5117 84.2852C42.3312 84.0512 42.1758 83.6887 42.0561 83.2283C41.8183 82.3137 41.7766 81.2381 41.7766 80.6744H40.4095C40.4095 81.272 40.4508 82.4868 40.733 83.5723C40.8732 84.1119 41.0871 84.6769 41.4293 85.1204C41.7864 85.5832 42.3085 85.9388 43.0071 85.9388V84.5717ZM41.7766 80.6744C41.7766 79.7655 41.8995 78.8912 42.1616 78.236L40.8922 77.7282C40.5419 78.6042 40.4095 79.6694 40.4095 80.6744H41.7766ZM49.7583 76.234V75.5503L49.7465 75.5505L49.7583 76.234ZM48.2016 85.587L47.6698 85.1575L46.7708 86.2706H48.2016V85.587ZM49.0948 85.587V86.2706H49.4186L49.6237 86.02L49.0948 85.587ZM56.7508 76.234L57.2797 76.667L58.1937 75.5504H56.7508V76.234ZM55.7555 76.234V75.5504H55.4289L55.2237 75.8045L55.7555 76.234ZM52.2902 83.2137C52.2902 84.0696 52.5875 84.8398 53.1435 85.398C53.6999 85.9565 54.4708 86.2578 55.3344 86.2578V84.8907C54.7944 84.8907 54.385 84.7072 54.112 84.4331C53.8386 84.1587 53.6574 83.7486 53.6574 83.2137H52.2902ZM55.3344 86.2578C57.3201 86.2578 58.3275 84.5236 58.3275 83.0988H56.9604C56.9604 84.0219 56.3345 84.8907 55.3344 84.8907V86.2578ZM58.3275 83.0988C58.3275 82.3451 58.0847 81.5816 57.5733 80.9966C57.0509 80.3989 56.2832 80.0292 55.3344 80.0292V81.3963C55.9041 81.3963 56.2911 81.6071 56.5439 81.8963C56.8077 82.1981 56.9604 82.6276 56.9604 83.0988H58.3275ZM55.3344 80.0292C53.6077 80.0292 52.2902 81.5714 52.2902 83.2137H53.6574C53.6574 82.2275 54.4581 81.3963 55.3344 81.3963V80.0292ZM49.7583 81.7791C51.4809 81.7791 52.7897 80.202 52.7897 78.5818H51.4226C51.4226 79.5647 50.6132 80.412 49.7583 80.412V81.7791ZM52.7897 78.5818C52.7897 77.7231 52.4979 76.9542 51.9419 76.3982C51.3859 75.8422 50.617 75.5504 49.7583 75.5504V76.9175C50.3032 76.9175 50.7082 77.0979 50.9752 77.3649C51.2422 77.6319 51.4226 78.0369 51.4226 78.5818H52.7897ZM49.7465 75.5505C47.7974 75.5841 46.7652 77.2538 46.7652 78.7094H48.1323C48.1323 77.7916 48.7588 76.9349 49.7701 76.9174L49.7465 75.5505ZM46.7652 78.7094C46.7652 79.4607 47.0135 80.2229 47.5243 80.807C48.0458 81.4034 48.8121 81.7791 49.7583 81.7791V80.412C49.1988 80.412 48.8103 80.2007 48.5534 79.907C48.2859 79.6011 48.1323 79.1704 48.1323 78.7094H46.7652ZM54.7675 83.0095C54.7675 82.7231 54.8381 82.3357 54.9812 82.0449C55.1278 81.7469 55.2541 81.7153 55.3216 81.7153V80.3482C54.496 80.3482 54.0034 80.9354 53.7545 81.4413C53.502 81.9544 53.4004 82.5559 53.4004 83.0095H54.7675ZM55.3216 81.7153C55.37 81.7153 55.5095 81.7334 55.6648 82.1359C55.8083 82.5078 55.863 82.9854 55.863 83.303H57.2302C57.2302 82.8805 57.1637 82.2225 56.9403 81.6437C56.7288 81.0957 56.2558 80.3482 55.3216 80.3482V81.7153ZM55.863 83.303C55.863 83.5557 55.7963 83.942 55.6553 84.2418C55.5043 84.5629 55.3845 84.5717 55.3599 84.5717V85.9388C56.1903 85.9388 56.6638 85.3097 56.8924 84.8237C57.131 84.3164 57.2302 83.7266 57.2302 83.303H55.863ZM55.3599 84.5717C55.3408 84.5717 55.1883 84.5534 55.0048 84.129C54.8415 83.7513 54.7675 83.2835 54.7675 83.0095H53.4004C53.4004 83.4502 53.505 84.1052 53.75 84.6717C53.9748 85.1915 54.4603 85.9388 55.3599 85.9388V84.5717ZM48.2016 86.2706H49.0948V84.9035H48.2016V86.2706ZM49.6237 86.02L57.2797 76.667L56.2218 75.801L48.5658 85.1541L49.6237 86.02ZM56.7508 75.5504H55.7555V76.9175H56.7508V75.5504ZM55.2237 75.8045L47.6698 85.1575L48.7334 86.0165L56.2873 76.6635L55.2237 75.8045ZM49.7711 77.2365C49.8121 77.2365 49.9535 77.2551 50.1155 77.654C50.2639 78.0195 50.3252 78.4858 50.3252 78.786H51.6923C51.6923 78.3588 51.6133 77.7086 51.3821 77.1395C51.1645 76.6036 50.687 75.8694 49.7711 75.8694V77.2365ZM50.3252 78.786C50.3252 79.098 50.2641 79.489 50.1309 79.7746C50.0007 80.0537 49.8823 80.093 49.7838 80.093V81.4601C50.6295 81.4601 51.1236 80.8805 51.3699 80.3525C51.6131 79.8311 51.6923 79.2268 51.6923 78.786H50.3252ZM49.7838 80.093C49.7545 80.093 49.6091 80.0791 49.4418 79.6559C49.2911 79.2749 49.2297 78.7932 49.2297 78.4925H47.8625C47.8625 78.9191 47.9414 79.5795 48.1704 80.1586C48.3827 80.6956 48.8561 81.4601 49.7838 81.4601V80.093ZM49.2297 78.4925C49.2297 78.2578 49.305 77.8791 49.4575 77.5777C49.6229 77.2508 49.752 77.2365 49.7711 77.2365V75.8694C48.9607 75.8694 48.4773 76.4867 48.2376 76.9605C47.985 77.4599 47.8625 78.0509 47.8625 78.4925H49.2297Z" fill="#F8E4BE"/>
<path d="M141.636 57.2558C154.929 57.2558 165.706 46.479 165.706 33.185C165.706 19.8911 154.929 9.11426 141.636 9.11426C128.342 9.11426 117.565 19.8911 117.565 33.185C117.565 46.479 128.342 57.2558 141.636 57.2558Z" stroke="#4E3D33" stroke-width="6.36176" stroke-miterlimit="10"/>
<path opacity="0.8" d="M153.94 33.185C153.94 35.6185 153.218 37.9974 151.866 40.0209C150.514 42.0443 148.593 43.6213 146.344 44.5526C144.096 45.4839 141.622 45.7276 139.235 45.2528C136.848 44.7781 134.656 43.6062 132.935 41.8854C131.214 40.1646 130.043 37.9722 129.568 35.5854C129.093 33.1986 129.337 30.7247 130.268 28.4764C131.199 26.228 132.776 24.3064 134.8 22.9544C136.823 21.6024 139.202 20.8807 141.636 20.8807" stroke="white" stroke-width="6.36176" stroke-miterlimit="10" stroke-linecap="round"/>
<path d="M167.229 33.1849H180.444" stroke="#4E3D33" stroke-width="7.1547" stroke-miterlimit="10" stroke-linecap="round"/>
<path d="M137.681 78.6711C137.732 77.2803 138.459 76.9485 139.442 76.9485H141.917L139.85 82.5757C139.467 83.6858 139.238 84.3238 139.123 84.4897C138.906 84.8087 138.829 84.898 138.179 85.0511V85.3701H141.05V84.528C140.603 84.7194 140.105 84.847 139.531 84.9363C139.748 84.7449 139.85 84.5918 140.118 83.8389L142.632 76.9485V76.4381H137.285V78.6711H137.681ZM143.55 83.8389C143.55 84.5918 144.507 85.5743 146.127 85.5743C147.773 85.5743 149.266 84.579 149.266 82.6905C149.266 81.4018 148.462 79.7812 146.395 79.7812C145.859 79.7812 145.374 79.8706 144.877 80.062V76.7571H148.781V76.4381H143.894V80.8531H144.226C144.673 80.4958 145.209 80.2534 145.987 80.2534C147.493 80.2534 148.131 81.2359 148.284 82.6012C148.322 82.9968 148.258 83.4051 148.092 83.8389C147.735 84.7704 147.11 85.2553 146.102 85.2553C145.285 85.2553 144.66 84.6938 144.596 84.209C144.698 84.0686 144.736 83.9793 144.736 83.8134C144.736 83.6475 144.634 83.2264 144.149 83.2264C143.779 83.2264 143.55 83.4944 143.55 83.8389ZM155.824 83.2137C155.824 84.6045 156.781 85.5743 158.184 85.5743C159.677 85.5743 160.494 84.2728 160.494 83.0988C160.494 81.8739 159.703 80.7127 158.184 80.7127C156.883 80.7127 155.824 81.8994 155.824 83.2137ZM152.608 81.0955C153.897 81.0955 154.956 79.8833 154.956 78.5818C154.956 77.1782 154.012 76.234 152.608 76.234C151.128 76.2595 150.299 77.5227 150.299 78.7094C150.299 79.9216 151.103 81.0955 152.608 81.0955ZM156.934 83.0095C156.934 82.2694 157.278 81.0317 158.172 81.0317C159.154 81.0317 159.397 82.5629 159.397 83.303C159.397 83.9793 159.065 85.2553 158.21 85.2553C157.291 85.2553 156.934 83.7241 156.934 83.0095ZM151.052 85.587H151.945L159.601 76.234H158.606L151.052 85.587ZM152.621 76.553C153.578 76.553 153.859 78.0587 153.859 78.786C153.859 79.5388 153.578 80.7765 152.634 80.7765C151.677 80.7765 151.396 79.2198 151.396 78.4925C151.396 77.8162 151.792 76.553 152.621 76.553Z" fill="#F8E4BE"/>
<path d="M137.681 78.6711V79.3547H138.34L138.364 78.6962L137.681 78.6711ZM141.917 76.9485L142.559 77.1842L142.897 76.265H141.917V76.9485ZM139.85 82.5757L139.208 82.3399L139.204 82.3528L139.85 82.5757ZM139.123 84.4897L138.561 84.1006L138.558 84.1053L139.123 84.4897ZM138.179 85.0511L138.022 84.3857L137.495 84.5097V85.0511H138.179ZM138.179 85.3701H137.495V86.0537H138.179V85.3701ZM141.05 85.3701V86.0537H141.733V85.3701H141.05ZM141.05 84.528H141.733V83.4913L140.78 83.8997L141.05 84.528ZM139.531 84.9363L139.079 84.4237L137.325 85.9712L139.636 85.6117L139.531 84.9363ZM140.118 83.8389L139.476 83.6046L139.474 83.6097L140.118 83.8389ZM142.632 76.9485L143.274 77.1828L143.315 77.0693V76.9485H142.632ZM142.632 76.4381H143.315V75.7546H142.632V76.4381ZM137.285 76.4381V75.7546H136.602V76.4381H137.285ZM137.285 78.6711H136.602V79.3547H137.285V78.6711ZM138.364 78.6962C138.386 78.1113 138.542 77.9027 138.647 77.8154C138.774 77.7106 139.005 77.6321 139.442 77.6321V76.265C138.896 76.265 138.272 76.3523 137.777 76.7611C137.261 77.1875 137.027 77.8401 136.998 78.6461L138.364 78.6962ZM139.442 77.6321H141.917V76.265H139.442V77.6321ZM141.276 76.7128L139.208 82.34L140.492 82.8114L142.559 77.1842L141.276 76.7128ZM139.204 82.3528C139.012 82.9085 138.862 83.3374 138.746 83.6468C138.688 83.8016 138.641 83.9193 138.604 84.0043C138.562 84.1019 138.548 84.1188 138.561 84.1006L139.685 84.8788C139.755 84.7776 139.813 84.6526 139.858 84.5492C139.908 84.4332 139.965 84.2909 140.026 84.1268C140.149 83.7981 140.305 83.353 140.496 82.7985L139.204 82.3528ZM138.558 84.1053C138.501 84.1883 138.476 84.2226 138.457 84.2447C138.453 84.2489 138.451 84.2516 138.449 84.2532C138.448 84.2548 138.447 84.2555 138.447 84.2556C138.447 84.2556 138.447 84.2555 138.447 84.2554C138.447 84.2553 138.447 84.2555 138.446 84.2562C138.426 84.2687 138.348 84.3089 138.022 84.3857L138.335 85.7165C138.659 85.6402 138.945 85.5592 139.181 85.409C139.442 85.2427 139.585 85.0262 139.688 84.8741L138.558 84.1053ZM137.495 85.0511V85.3701H138.862V85.0511H137.495ZM138.179 86.0537H141.05V84.6865H138.179V86.0537ZM141.733 85.3701V84.528H140.366V85.3701H141.733ZM140.78 83.8997C140.402 84.0619 139.963 84.1773 139.426 84.2608L139.636 85.6117C140.248 85.5166 140.804 85.3768 141.319 85.1563L140.78 83.8997ZM139.983 85.4488C140.136 85.3139 140.272 85.1683 140.404 84.928C140.52 84.7185 140.628 84.4453 140.762 84.0681L139.474 83.6097C139.34 83.9854 139.264 84.1652 139.207 84.2682C139.167 84.3406 139.143 84.3673 139.079 84.4237L139.983 85.4488ZM140.76 84.0732L143.274 77.1828L141.99 76.7143L139.476 83.6046L140.76 84.0732ZM143.315 76.9485V76.4381H141.948V76.9485H143.315ZM142.632 75.7546H137.285V77.1217H142.632V75.7546ZM136.602 76.4381V78.6711H137.969V76.4381H136.602ZM137.285 79.3547H137.681V77.9876H137.285V79.3547ZM144.877 80.062H144.193V81.0573L145.122 80.7L144.877 80.062ZM144.877 76.7571V76.0736H144.193V76.7571H144.877ZM148.781 76.7571V77.4407H149.465V76.7571H148.781ZM148.781 76.4381H149.465V75.7546H148.781V76.4381ZM143.894 76.4381V75.7546H143.211V76.4381H143.894ZM143.894 80.8531H143.211V81.5367H143.894V80.8531ZM144.226 80.8531V81.5367H144.466L144.653 81.3869L144.226 80.8531ZM148.284 82.6012L148.964 82.5354L148.963 82.525L148.284 82.6012ZM148.092 83.8389L148.731 84.0837L148.731 84.083L148.092 83.8389ZM144.596 84.209L144.043 83.8069L143.883 84.0276L143.918 84.2981L144.596 84.209ZM142.866 83.8389C142.866 84.4925 143.263 85.1072 143.814 85.5308C144.384 85.9691 145.178 86.2578 146.127 86.2578V84.8907C145.456 84.8907 144.961 84.6882 144.647 84.447C144.315 84.1912 144.233 83.9382 144.233 83.8389H142.866ZM146.127 86.2578C147.081 86.2578 148.03 85.97 148.753 85.3646C149.49 84.7471 149.95 83.8327 149.95 82.6905H148.583C148.583 83.4368 148.296 83.9643 147.875 84.3165C147.44 84.6809 146.819 84.8907 146.127 84.8907V86.2578ZM149.95 82.6905C149.95 81.9177 149.711 81.0303 149.137 80.3219C148.544 79.5917 147.629 79.0977 146.395 79.0977V80.4648C147.228 80.4648 147.749 80.7811 148.075 81.1833C148.419 81.6074 148.583 82.1746 148.583 82.6905H149.95ZM146.395 79.0977C145.776 79.0977 145.208 79.2021 144.631 79.424L145.122 80.7C145.541 80.539 145.942 80.4648 146.395 80.4648V79.0977ZM145.56 80.062V76.7571H144.193V80.062H145.56ZM144.877 77.4407H148.781V76.0736H144.877V77.4407ZM149.465 76.7571V76.4381H148.098V76.7571H149.465ZM148.781 75.7546H143.894V77.1217H148.781V75.7546ZM143.211 76.4381V80.8531H144.578V76.4381H143.211ZM143.894 81.5367H144.226V80.1695H143.894V81.5367ZM144.653 81.3869C144.989 81.1179 145.377 80.9369 145.987 80.9369V79.5698C145.04 79.5698 144.356 79.8737 143.799 80.3193L144.653 81.3869ZM145.987 80.9369C146.576 80.9369 146.913 81.1211 147.13 81.3672C147.368 81.6375 147.536 82.0679 147.604 82.6774L148.963 82.525C148.878 81.7692 148.651 81.0257 148.155 80.4634C147.639 79.8769 146.903 79.5698 145.987 79.5698V80.9369ZM147.603 82.667C147.63 82.9401 147.589 83.2419 147.454 83.5948L148.731 84.083C148.928 83.5682 149.014 83.0535 148.964 82.5354L147.603 82.667ZM147.454 83.5941C147.308 83.9737 147.131 84.2041 146.939 84.3435C146.752 84.4797 146.492 84.5717 146.102 84.5717V85.9388C146.719 85.9388 147.276 85.7884 147.743 85.4493C148.205 85.1134 148.519 84.6356 148.731 84.0837L147.454 83.5941ZM146.102 84.5717C145.851 84.5717 145.633 84.4851 145.478 84.3683C145.401 84.31 145.347 84.2495 145.313 84.1985C145.278 84.1458 145.273 84.1173 145.274 84.1198L143.918 84.2981C143.981 84.7761 144.292 85.186 144.655 85.4596C145.033 85.7447 145.536 85.9388 146.102 85.9388V84.5717ZM145.149 84.611C145.214 84.5221 145.291 84.405 145.346 84.2571C145.404 84.1008 145.42 83.9525 145.42 83.8134H144.053C144.053 83.8289 144.052 83.83 144.053 83.8221C144.054 83.818 144.055 83.8122 144.057 83.8052C144.058 83.7982 144.061 83.7911 144.063 83.7844C144.068 83.7706 144.072 83.7637 144.071 83.7664C144.07 83.768 144.068 83.772 144.063 83.7789C144.058 83.7858 144.052 83.7949 144.043 83.8069L145.149 84.611ZM145.42 83.8134C145.42 83.6263 145.37 83.3364 145.189 83.072C144.982 82.7685 144.628 82.5429 144.149 82.5429V83.91C144.168 83.91 144.152 83.9132 144.12 83.896C144.09 83.8796 144.07 83.8577 144.06 83.8435C144.052 83.8318 144.052 83.827 144.053 83.8317C144.055 83.838 144.053 83.8349 144.053 83.8134H145.42ZM144.149 82.5429C143.791 82.5429 143.456 82.6773 143.213 82.9348C142.976 83.1871 142.866 83.5149 142.866 83.8389H144.233C144.233 83.8184 144.239 83.84 144.208 83.8722C144.194 83.8875 144.177 83.8987 144.161 83.9051C144.146 83.9115 144.14 83.91 144.149 83.91V82.5429ZM152.608 76.234V75.5503L152.597 75.5505L152.608 76.234ZM151.052 85.587L150.52 85.1575L149.621 86.2706H151.052V85.587ZM151.945 85.587V86.2706H152.269L152.474 86.02L151.945 85.587ZM159.601 76.234L160.13 76.667L161.044 75.5504H159.601V76.234ZM158.606 76.234V75.5504H158.279L158.074 75.8045L158.606 76.234ZM155.14 83.2137C155.14 84.0696 155.437 84.8398 155.993 85.398C156.55 85.9565 157.321 86.2578 158.184 86.2578V84.8907C157.644 84.8907 157.235 84.7072 156.962 84.4331C156.689 84.1587 156.507 83.7486 156.507 83.2137H155.14ZM158.184 86.2578C160.17 86.2578 161.178 84.5236 161.178 83.0988H159.81C159.81 84.0219 159.185 84.8907 158.184 84.8907V86.2578ZM161.178 83.0988C161.178 82.3451 160.935 81.5816 160.423 80.9966C159.901 80.3989 159.133 80.0292 158.184 80.0292V81.3963C158.754 81.3963 159.141 81.6071 159.394 81.8963C159.658 82.1981 159.81 82.6276 159.81 83.0988H161.178ZM158.184 80.0292C156.458 80.0292 155.14 81.5714 155.14 83.2137H156.507C156.507 82.2275 157.308 81.3963 158.184 81.3963V80.0292ZM152.608 81.7791C154.331 81.7791 155.64 80.202 155.64 78.5818H154.273C154.273 79.5647 153.463 80.412 152.608 80.412V81.7791ZM155.64 78.5818C155.64 77.7231 155.348 76.9542 154.792 76.3982C154.236 75.8422 153.467 75.5504 152.608 75.5504V76.9175C153.153 76.9175 153.558 77.0979 153.825 77.3649C154.092 77.6319 154.273 78.0369 154.273 78.5818H155.64ZM152.597 75.5505C150.647 75.5841 149.615 77.2538 149.615 78.7094H150.982C150.982 77.7916 151.609 76.9349 152.62 76.9174L152.597 75.5505ZM149.615 78.7094C149.615 79.4607 149.864 80.2229 150.374 80.807C150.896 81.4034 151.662 81.7791 152.608 81.7791V80.412C152.049 80.412 151.66 80.2007 151.403 79.907C151.136 79.6011 150.982 79.1704 150.982 78.7094H149.615ZM157.618 83.0095C157.618 82.7231 157.688 82.3357 157.831 82.0449C157.978 81.7469 158.104 81.7153 158.172 81.7153V80.3482C157.346 80.3482 156.853 80.9354 156.605 81.4413C156.352 81.9544 156.25 82.5559 156.25 83.0095H157.618ZM158.172 81.7153C158.22 81.7153 158.36 81.7334 158.515 82.1359C158.658 82.5078 158.713 82.9854 158.713 83.303H160.08C160.08 82.8805 160.014 82.2225 159.79 81.6437C159.579 81.0957 159.106 80.3482 158.172 80.3482V81.7153ZM158.713 83.303C158.713 83.5557 158.646 83.942 158.505 84.2418C158.354 84.5629 158.235 84.5717 158.21 84.5717V85.9388C159.04 85.9388 159.514 85.3097 159.742 84.8237C159.981 84.3164 160.08 83.7266 160.08 83.303H158.713ZM158.21 84.5717C158.191 84.5717 158.038 84.5534 157.855 84.129C157.691 83.7513 157.618 83.2835 157.618 83.0095H156.25C156.25 83.4502 156.355 84.1052 156.6 84.6717C156.825 85.1915 157.31 85.9388 158.21 85.9388V84.5717ZM151.052 86.2706H151.945V84.9035H151.052V86.2706ZM152.474 86.02L160.13 76.667L159.072 75.801L151.416 85.1541L152.474 86.02ZM159.601 75.5504H158.606V76.9175H159.601V75.5504ZM158.074 75.8045L150.52 85.1575L151.583 86.0165L159.137 76.6635L158.074 75.8045ZM152.621 77.2365C152.662 77.2365 152.804 77.2551 152.965 77.654C153.114 78.0195 153.175 78.4858 153.175 78.786H154.542C154.542 78.3588 154.463 77.7086 154.232 77.1395C154.015 76.6036 153.537 75.8694 152.621 75.8694V77.2365ZM153.175 78.786C153.175 79.098 153.114 79.489 152.981 79.7746C152.851 80.0537 152.732 80.093 152.634 80.093V81.4601C153.48 81.4601 153.974 80.8805 154.22 80.3525C154.463 79.8311 154.542 79.2268 154.542 78.786H153.175ZM152.634 80.093C152.605 80.093 152.459 80.0791 152.292 79.6559C152.141 79.2749 152.08 78.7932 152.08 78.4925H150.713C150.713 78.9191 150.791 79.5795 151.02 80.1586C151.233 80.6956 151.706 81.4601 152.634 81.4601V80.093ZM152.08 78.4925C152.08 78.2578 152.155 77.8791 152.308 77.5777C152.473 77.2508 152.602 77.2365 152.621 77.2365V75.8694C151.811 75.8694 151.327 76.4867 151.088 76.9605C150.835 77.4599 150.713 78.0509 150.713 78.4925H152.08Z" fill="#F8E4BE"/>
<path d="M245.529 57.2558C258.823 57.2558 269.6 46.479 269.6 33.185C269.6 19.8911 258.823 9.11426 245.529 9.11426C232.235 9.11426 221.459 19.8911 221.459 33.185C221.459 46.479 232.235 57.2558 245.529 57.2558Z" stroke="#4E3D33" stroke-width="6.36176" stroke-miterlimit="10"/>
<path opacity="0.8" d="M245.529 20.8807C247.963 20.8807 250.342 21.6024 252.365 22.9544C254.388 24.3064 255.965 26.228 256.897 28.4764C257.828 30.7247 258.072 33.1986 257.597 35.5854C257.122 37.9722 255.95 40.1646 254.23 41.8854C252.509 43.6062 250.316 44.7781 247.93 45.2528C245.543 45.7276 243.069 45.4839 240.82 44.5526C238.572 43.6213 236.651 42.0443 235.298 40.0209C233.946 37.9974 233.225 35.6185 233.225 33.185C233.225 29.9217 234.521 26.7921 236.829 24.4846C239.136 22.1771 242.266 20.8807 245.529 20.8807Z" stroke="white" stroke-width="6.36176" stroke-miterlimit="10"/>
<path d="M271.122 33.1849H284.329" stroke="#4E3D33" stroke-width="7.1547" stroke-miterlimit="10" stroke-linecap="round"/>
<path d="M237.302 78.3394L238.948 77.1782V83.4944C238.948 84.3238 238.718 84.8214 237.838 85.0511V85.3701H240.811V84.528C240.364 84.7194 239.867 84.847 239.292 84.9363C239.918 84.6428 239.93 84.2472 239.93 83.8517V76.234H239.611L237.123 78.0842L237.302 78.3394ZM245.348 85.5743C247.721 85.5743 248.602 82.9968 248.602 80.8786C248.602 78.7477 247.887 76.234 245.399 76.234C243.026 76.234 242.094 78.7987 242.094 80.9424C242.094 83.0861 242.745 85.5743 245.348 85.5743ZM243.842 77.9821C244.148 77.2165 244.684 76.553 245.412 76.553C246.93 76.553 247.287 79.1943 247.287 81.1466C247.287 82.078 247.185 83.0478 246.905 83.8134C246.624 84.579 246.05 85.2553 245.322 85.2553C243.574 85.2553 243.408 81.8356 243.408 80.6744C243.408 79.7174 243.536 78.7477 243.842 77.9821ZM253.273 85.5743C255.646 85.5743 256.527 82.9968 256.527 80.8786C256.527 78.7477 255.812 76.234 253.324 76.234C250.951 76.234 250.019 78.7987 250.019 80.9424C250.019 83.0861 250.67 85.5743 253.273 85.5743ZM251.767 77.9821C252.074 77.2165 252.61 76.553 253.337 76.553C254.855 76.553 255.213 79.1943 255.213 81.1466C255.213 82.078 255.11 83.0478 254.83 83.8134C254.549 84.579 253.975 85.2553 253.248 85.2553C251.499 85.2553 251.334 81.8356 251.334 80.6744C251.334 79.7174 251.461 78.7477 251.767 77.9821ZM263.214 83.2137C263.214 84.6045 264.171 85.5743 265.575 85.5743C267.068 85.5743 267.884 84.2728 267.884 83.0988C267.884 81.8739 267.093 80.7127 265.575 80.7127C264.273 80.7127 263.214 81.8994 263.214 83.2137ZM259.999 81.0955C261.287 81.0955 262.347 79.8833 262.347 78.5818C262.347 77.1782 261.402 76.234 259.999 76.234C258.519 76.2595 257.689 77.5227 257.689 78.7094C257.689 79.9216 258.493 81.0955 259.999 81.0955ZM264.324 83.0095C264.324 82.2694 264.669 81.0317 265.562 81.0317C266.545 81.0317 266.787 82.5629 266.787 83.303C266.787 83.9793 266.455 85.2553 265.6 85.2553C264.682 85.2553 264.324 83.7241 264.324 83.0095ZM258.442 85.587H259.335L266.991 76.234H265.996L258.442 85.587ZM260.011 76.553C260.968 76.553 261.249 78.0587 261.249 78.786C261.249 79.5388 260.968 80.7765 260.024 80.7765C259.067 80.7765 258.787 79.2198 258.787 78.4925C258.787 77.8162 259.182 76.553 260.011 76.553Z" fill="#F8E4BE"/>
<path d="M237.302 78.3394L236.742 78.7314L237.135 79.2934L237.696 78.8979L237.302 78.3394ZM238.948 77.1782H239.632V75.8595L238.554 76.6196L238.948 77.1782ZM237.838 85.0511L237.665 84.3897L237.154 84.523V85.0511H237.838ZM237.838 85.3701H237.154V86.0537H237.838V85.3701ZM240.811 85.3701V86.0537H241.494V85.3701H240.811ZM240.811 84.528H241.494V83.4913L240.542 83.8997L240.811 84.528ZM239.292 84.9363L239.002 84.3175L239.398 85.6117L239.292 84.9363ZM239.93 76.234H240.614V75.5504H239.93V76.234ZM239.611 76.234V75.5504H239.385L239.204 75.6854L239.611 76.234ZM237.123 78.0842L236.715 77.5356L236.182 77.932L236.563 78.4762L237.123 78.0842ZM237.696 78.8979L239.342 77.7368L238.554 76.6196L236.908 77.7808L237.696 78.8979ZM238.264 77.1782V83.4944H239.632V77.1782H238.264ZM238.264 83.4944C238.264 83.8634 238.209 84.0339 238.151 84.1242C238.106 84.1932 238.002 84.3018 237.665 84.3897L238.01 85.7126C238.554 85.5708 239.006 85.3157 239.296 84.8711C239.572 84.4478 239.632 83.9548 239.632 83.4944H238.264ZM237.154 85.0511V85.3701H238.521V85.0511H237.154ZM237.838 86.0537H240.811V84.6865H237.838V86.0537ZM241.494 85.3701V84.528H240.127V85.3701H241.494ZM240.542 83.8997C240.163 84.0619 239.725 84.1773 239.187 84.2608L239.398 85.6117C240.009 85.5166 240.566 85.3768 241.08 85.1563L240.542 83.8997ZM239.583 85.5551C240.009 85.3549 240.309 85.0764 240.472 84.7074C240.619 84.3731 240.614 84.036 240.614 83.8517H239.247C239.247 84.0629 239.236 84.1214 239.22 84.1571C239.22 84.1581 239.201 84.2242 239.002 84.3175L239.583 85.5551ZM240.614 83.8517V76.234H239.247V83.8517H240.614ZM239.93 75.5504H239.611V76.9175H239.93V75.5504ZM239.204 75.6854L236.715 77.5356L237.531 78.6327L240.019 76.7825L239.204 75.6854ZM236.563 78.4762L236.742 78.7314L237.862 77.9474L237.683 77.6922L236.563 78.4762ZM243.842 77.9821L243.208 77.7282L243.842 77.9821ZM246.905 83.8134L247.546 84.0487L246.905 83.8134ZM245.348 86.2578C246.837 86.2578 247.852 85.4273 248.459 84.3585C249.052 83.316 249.285 82.0153 249.285 80.8786H247.918C247.918 81.8601 247.711 82.9072 247.271 83.683C246.844 84.4325 246.232 84.8907 245.348 84.8907V86.2578ZM249.285 80.8786C249.285 79.7559 249.1 78.465 248.533 77.429C247.943 76.3515 246.932 75.5504 245.399 75.5504V76.9175C246.354 76.9175 246.944 77.3733 247.334 78.0854C247.746 78.839 247.918 79.8704 247.918 80.8786H249.285ZM245.399 75.5504C243.914 75.5504 242.887 76.3733 242.266 77.4403C241.659 78.4827 241.411 79.7881 241.411 80.9424H242.778C242.778 79.953 242.995 78.9042 243.447 78.1284C243.885 77.377 244.511 76.9175 245.399 76.9175V75.5504ZM241.411 80.9424C241.411 82.0628 241.577 83.3547 242.145 84.3909C242.741 85.4773 243.772 86.2578 245.348 86.2578V84.8907C244.321 84.8907 243.725 84.4272 243.344 83.7335C242.936 82.9898 242.778 81.9657 242.778 80.9424H241.411ZM244.477 78.236C244.607 77.9098 244.774 77.6416 244.951 77.4653C245.123 77.2946 245.274 77.2365 245.412 77.2365V75.8694C244.822 75.8694 244.342 76.1431 243.987 76.4956C243.638 76.8424 243.383 77.2888 243.208 77.7282L244.477 78.236ZM245.412 77.2365C245.564 77.2365 245.694 77.292 245.834 77.4501C245.991 77.6261 246.141 77.9141 246.266 78.3193C246.515 79.1274 246.604 80.1964 246.604 81.1466H247.971C247.971 80.1445 247.881 78.9166 247.572 77.9161C247.418 77.4169 247.194 76.9225 246.856 76.5423C246.503 76.1441 246.019 75.8694 245.412 75.8694V77.2365ZM246.604 81.1466C246.604 82.0426 246.504 82.9208 246.263 83.5781L247.546 84.0487C247.867 83.1748 247.971 82.1135 247.971 81.1466H246.604ZM246.263 83.5781C246.149 83.8877 245.984 84.1548 245.802 84.3338C245.622 84.5102 245.46 84.5717 245.322 84.5717V85.9388C245.912 85.9388 246.4 85.6622 246.76 85.3091C247.117 84.9586 247.379 84.5047 247.546 84.0487L246.263 83.5781ZM245.322 84.5717C245.147 84.5717 244.993 84.4999 244.827 84.2852C244.646 84.0512 244.491 83.6887 244.371 83.2283C244.134 82.3137 244.092 81.2381 244.092 80.6744H242.725C242.725 81.272 242.766 82.4868 243.048 83.5723C243.189 84.1119 243.402 84.6769 243.745 85.1204C244.102 85.5832 244.624 85.9388 245.322 85.9388V84.5717ZM244.092 80.6744C244.092 79.7655 244.215 78.8912 244.477 78.236L243.208 77.7282C242.857 78.6042 242.725 79.6694 242.725 80.6744H244.092ZM251.767 77.9821L251.133 77.7282L251.767 77.9821ZM254.83 83.8134L255.472 84.0487L254.83 83.8134ZM253.273 86.2578C254.762 86.2578 255.777 85.4273 256.384 84.3585C256.977 83.316 257.21 82.0153 257.21 80.8786H255.843C255.843 81.8601 255.637 82.9072 255.196 83.683C254.77 84.4325 254.157 84.8907 253.273 84.8907V86.2578ZM257.21 80.8786C257.21 79.7559 257.025 78.465 256.458 77.429C255.868 76.3515 254.857 75.5504 253.324 75.5504V76.9175C254.279 76.9175 254.869 77.3733 255.259 78.0854C255.671 78.839 255.843 79.8704 255.843 80.8786H257.21ZM253.324 75.5504C251.839 75.5504 250.812 76.3733 250.191 77.4403C249.584 78.4827 249.336 79.7881 249.336 80.9424H250.703C250.703 79.953 250.92 78.9042 251.372 78.1284C251.81 77.377 252.436 76.9175 253.324 76.9175V75.5504ZM249.336 80.9424C249.336 82.0628 249.502 83.3547 250.071 84.3909C250.666 85.4773 251.697 86.2578 253.273 86.2578V84.8907C252.246 84.8907 251.65 84.4272 251.269 83.7335C250.861 82.9898 250.703 81.9657 250.703 80.9424H249.336ZM252.402 78.236C252.533 77.9098 252.699 77.6416 252.876 77.4653C253.048 77.2946 253.2 77.2365 253.337 77.2365V75.8694C252.747 75.8694 252.267 76.1431 251.912 76.4956C251.563 76.8424 251.308 77.2888 251.133 77.7282L252.402 78.236ZM253.337 77.2365C253.489 77.2365 253.619 77.292 253.759 77.4501C253.916 77.6261 254.066 77.9141 254.191 78.3193C254.44 79.1274 254.529 80.1964 254.529 81.1466H255.896C255.896 80.1445 255.806 78.9166 255.497 77.9161C255.343 77.4169 255.119 76.9225 254.782 76.5423C254.428 76.1441 253.944 75.8694 253.337 75.8694V77.2365ZM254.529 81.1466C254.529 82.0426 254.429 82.9208 254.188 83.5781L255.472 84.0487C255.792 83.1748 255.896 82.1135 255.896 81.1466H254.529ZM254.188 83.5781C254.074 83.8877 253.909 84.1548 253.727 84.3338C253.547 84.5102 253.385 84.5717 253.248 84.5717V85.9388C253.837 85.9388 254.326 85.6622 254.685 85.3091C255.042 84.9586 255.304 84.5047 255.472 84.0487L254.188 83.5781ZM253.248 84.5717C253.072 84.5717 252.918 84.4999 252.752 84.2852C252.572 84.0512 252.416 83.6887 252.297 83.2283C252.059 82.3137 252.017 81.2381 252.017 80.6744H250.65C250.65 81.272 250.691 82.4868 250.973 83.5723C251.114 84.1119 251.328 84.6769 251.67 85.1204C252.027 85.5832 252.549 85.9388 253.248 85.9388V84.5717ZM252.017 80.6744C252.017 79.7655 252.14 78.8912 252.402 78.236L251.133 77.7282C250.782 78.6042 250.65 79.6694 250.65 80.6744H252.017ZM259.999 76.234V75.5503L259.987 75.5505L259.999 76.234ZM258.442 85.587L257.91 85.1575L257.011 86.2706H258.442V85.587ZM259.335 85.587V86.2706H259.659L259.864 86.02L259.335 85.587ZM266.991 76.234L267.52 76.667L268.434 75.5504H266.991V76.234ZM265.996 76.234V75.5504H265.669L265.464 75.8045L265.996 76.234ZM262.531 83.2137C262.531 84.0696 262.828 84.8398 263.384 85.398C263.94 85.9565 264.711 86.2578 265.575 86.2578V84.8907C265.035 84.8907 264.625 84.7072 264.352 84.4331C264.079 84.1587 263.898 83.7486 263.898 83.2137H262.531ZM265.575 86.2578C267.561 86.2578 268.568 84.5236 268.568 83.0988H267.201C267.201 84.0219 266.575 84.8907 265.575 84.8907V86.2578ZM268.568 83.0988C268.568 82.3451 268.325 81.5816 267.814 80.9966C267.291 80.3989 266.524 80.0292 265.575 80.0292V81.3963C266.145 81.3963 266.532 81.6071 266.784 81.8963C267.048 82.1981 267.201 82.6276 267.201 83.0988H268.568ZM265.575 80.0292C263.848 80.0292 262.531 81.5714 262.531 83.2137H263.898C263.898 82.2275 264.698 81.3963 265.575 81.3963V80.0292ZM259.999 81.7791C261.721 81.7791 263.03 80.202 263.03 78.5818H261.663C261.663 79.5647 260.854 80.412 259.999 80.412V81.7791ZM263.03 78.5818C263.03 77.7231 262.738 76.9542 262.182 76.3982C261.626 75.8422 260.857 75.5504 259.999 75.5504V76.9175C260.544 76.9175 260.949 77.0979 261.216 77.3649C261.483 77.6319 261.663 78.0369 261.663 78.5818H263.03ZM259.987 75.5505C258.038 75.5841 257.006 77.2538 257.006 78.7094H258.373C258.373 77.7916 258.999 76.9349 260.011 76.9174L259.987 75.5505ZM257.006 78.7094C257.006 79.4607 257.254 80.2229 257.765 80.807C258.286 81.4034 259.053 81.7791 259.999 81.7791V80.412C259.439 80.412 259.051 80.2007 258.794 79.907C258.526 79.6011 258.373 79.1704 258.373 78.7094H257.006ZM265.008 83.0095C265.008 82.7231 265.079 82.3357 265.222 82.0449C265.368 81.7469 265.495 81.7153 265.562 81.7153V80.3482C264.736 80.3482 264.244 80.9354 263.995 81.4413C263.742 81.9544 263.641 82.5559 263.641 83.0095H265.008ZM265.562 81.7153C265.61 81.7153 265.75 81.7334 265.905 82.1359C266.049 82.5078 266.103 82.9854 266.103 83.303H267.471C267.471 82.8805 267.404 82.2225 267.181 81.6437C266.969 81.0957 266.496 80.3482 265.562 80.3482V81.7153ZM266.103 83.303C266.103 83.5557 266.037 83.942 265.896 84.2418C265.745 84.5629 265.625 84.5717 265.6 84.5717V85.9388C266.431 85.9388 266.904 85.3097 267.133 84.8237C267.371 84.3164 267.471 83.7266 267.471 83.303H266.103ZM265.6 84.5717C265.581 84.5717 265.429 84.5534 265.245 84.129C265.082 83.7513 265.008 83.2835 265.008 83.0095H263.641C263.641 83.4502 263.745 84.1052 263.99 84.6717C264.215 85.1915 264.701 85.9388 265.6 85.9388V84.5717ZM258.442 86.2706H259.335V84.9035H258.442V86.2706ZM259.864 86.02L267.52 76.667L266.462 75.801L258.806 85.1541L259.864 86.02ZM266.991 75.5504H265.996V76.9175H266.991V75.5504ZM265.464 75.8045L257.91 85.1575L258.974 86.0165L266.528 76.6635L265.464 75.8045ZM260.011 77.2365C260.053 77.2365 260.194 77.2551 260.356 77.654C260.504 78.0195 260.566 78.4858 260.566 78.786H261.933C261.933 78.3588 261.854 77.7086 261.623 77.1395C261.405 76.6036 260.927 75.8694 260.011 75.8694V77.2365ZM260.566 78.786C260.566 79.098 260.505 79.489 260.371 79.7746C260.241 80.0537 260.123 80.093 260.024 80.093V81.4601C260.87 81.4601 261.364 80.8805 261.61 80.3525C261.854 79.8311 261.933 79.2268 261.933 78.786H260.566ZM260.024 80.093C259.995 80.093 259.85 80.0791 259.682 79.6559C259.532 79.2749 259.47 78.7932 259.47 78.4925H258.103C258.103 78.9191 258.182 79.5795 258.411 80.1586C258.623 80.6956 259.097 81.4601 260.024 81.4601V80.093ZM259.47 78.4925C259.47 78.2578 259.545 77.8791 259.698 77.5777C259.863 77.2508 259.992 77.2365 260.011 77.2365V75.8694C259.201 75.8694 258.718 76.4867 258.478 76.9605C258.225 77.4599 258.103 78.0509 258.103 78.4925H259.47Z" fill="#F8E4BE"/>
</g>
<defs>
<clipPath id="clip0_12_3295">
<rect width="298" height="103.484" fill="white"/>
</clipPath>
</defs>
</svg>
