<svg width="24" height="25" viewBox="0 0 24 25" fill="none" xmlns="http://www.w3.org/2000/svg">
<path d="M12 12.5C10.9 12.5 9.95833 12.1083 9.175 11.325C8.39167 10.5417 8 9.6 8 8.5C8 7.4 8.39167 6.45833 9.175 5.675C9.95833 4.89167 10.9 4.5 12 4.5C13.1 4.5 14.0417 4.89167 14.825 5.675C15.6083 6.45833 16 7.4 16 8.5C16 9.6 15.6083 10.5417 14.825 11.325C14.0417 12.1083 13.1 12.5 12 12.5ZM18 20.5H6C5.45 20.5 4.97933 20.3043 4.588 19.913C4.196 19.521 4 19.05 4 18.5V17.7C4 17.1333 4.146 16.6123 4.438 16.137C4.72933 15.6623 5.11667 15.3 5.6 15.05C6.63333 14.5333 7.68333 14.1457 8.75 13.887C9.81667 13.629 10.9 13.5 12 13.5C13.1 13.5 14.1833 13.629 15.25 13.887C16.3167 14.1457 17.3667 14.5333 18.4 15.05C18.8833 15.3 19.2707 15.6623 19.562 16.137C19.854 16.6123 20 17.1333 20 17.7V18.5C20 19.05 19.8043 19.521 19.413 19.913C19.021 20.3043 18.55 20.5 18 20.5ZM6 18.5H18V17.7C18 17.5167 17.9543 17.35 17.863 17.2C17.771 17.05 17.65 16.9333 17.5 16.85C16.6 16.4 15.6917 16.0623 14.775 15.837C13.8583 15.6123 12.9333 15.5 12 15.5C11.0667 15.5 10.1417 15.6123 9.225 15.837C8.30833 16.0623 7.4 16.4 6.5 16.85C6.35 16.9333 6.22933 17.05 6.138 17.2C6.046 17.35 6 17.5167 6 17.7V18.5ZM12 10.5C12.55 10.5 13.021 10.304 13.413 9.912C13.8043 9.52067 14 9.05 14 8.5C14 7.95 13.8043 7.47933 13.413 7.088C13.021 6.696 12.55 6.5 12 6.5C11.45 6.5 10.9793 6.696 10.588 7.088C10.196 7.47933 10 7.95 10 8.5C10 9.05 10.196 9.52067 10.588 9.912C10.9793 10.304 11.45 10.5 12 10.5Z" fill="#A4663C"/>
</svg>
